# AST/ASF file generated using VICON BodyLanguage
# -----------------------------------------------
:version 1.10
:name VICON
:units
  mass 1.0
  length 0.45
  angle deg
:documentation
   .ast/.asf automatically generated from VICON data using
   VICON BodyBuilder and BodyLanguage model FoxedUp or BRILLIANT.MOD
:root
   order TX TY TZ RX RY RZ
   axis XYZ
   position 0 0 0  
   orientation 0 0 0 
:bonedata
  begin
     id 1 
     name lhipjoint
     direction 0.522423 -0.726805 0.445902 
     length 2.25074 
     axis 0 0 0  XYZ
  end
  begin
     id 2 
     name lfemur
     direction 0.34202 -0.939693 0  
     length 6.54609  
     axis 0 0 20  XYZ
    dof rx ry rz
    limits (-160.0 20.0)
           (-70.0 70.0)
           (-60.0 70.0)
  end
  begin
     id 3 
     name ltibia
     direction 0.34202 -0.939693 0   
     length 7.7528   
     axis 0 0 20   XYZ
    dof rx
    limits (-10.0 170.0)
  end
  begin
     id 4 
     name lfoot
     direction 0.143696 -0.394801 0.90746   
     length 1.73269   
     axis -90 7.62852e-016 20   XYZ
    dof rx rz
    limits (-45.0 90.0)
           (-70.0 20.0)
  end
  begin
     id 5 
     name ltoes
     direction 1.53633e-011 -4.21912e-011 1   
     length 0.858383   
     axis -90 7.62852e-016 20   XYZ
    dof rx
    limits (-90.0 20.0)
  end
  begin
     id 6 
     name rhipjoint
     direction -0.515943 -0.73016 0.447961   
     length 2.2404  
     axis 0 0 0  XYZ 
  end
  begin
     id 7 
     name rfemur
     direction -0.34202 -0.939693 0   
     length 6.84377   
     axis 0 0 -20   XYZ
    dof rx ry rz
    limits (-160.0 20.0)
           (-70.0 70.0)
           (-70.0 60.0)
  end
  begin
     id 8 
     name rtibia
     direction -0.34202 -0.939693 0   
     length 7.57596   
     axis 0 0 -20   XYZ
    dof rx
    limits (-10.0 170.0)
 end
 begin
     id 9 
     name rfoot
     direction -0.0999372 -0.274575 0.956358   
     length 1.78783  
     axis -90 -7.62852e-016 -20   XYZ
    dof rx rz
    limits (-45.0 90.0)
           (-20.0 70.0)
  end
  begin
     id 10 
     name rtoes
     direction -1.53535e-011 -4.21895e-011 1   
     length 0.898614   
     axis -90 -7.62852e-016 -20   XYZ
    dof rx
    limits (-90.0 20.0)
  end
  begin
     id 11 
     name lowerback
     direction -0.011775 0.996164 -0.0867116   
     length 1.91499   
     axis 0 0 0   XYZ
    dof rx ry rz
    limits (-20.0 45.0)
           (-30.0 30.0)
           (-30.0 30.0)
  end
  begin
     id 12 
     name upperback
     direction -0.00189771 0.999673 -0.0254833   
     length 1.92213   
     axis 0 0 0   XYZ
    dof rx ry rz
    limits (-20.0 45.0)
           (-30.0 30.0)
           (-30.0 30.0)
  end
  begin
     id 13 
     name thorax
     direction 0.00335995 0.999878 0.0152401   
     length 1.93138   
     axis 0 0 0   XYZ
    dof rx ry rz
    limits (-20.0 45.0)
           (-30.0 30.0)
           (-30.0 30.0)
  end
  begin
     id 14 
     name lowerneck
     direction 0.00233191 0.998509 0.0545404   
     length 1.59408   
     axis 0 0 0   XYZ
    dof rx ry rz
    limits (-20.0 45.0)
           (-30.0 30.0)
           (-30.0 30.0)
  end
  begin
     id 15 
     name upperneck
     direction 0.07881 0.9956 -0.0506934   
     length 1.59344   
     axis 0 0 0   XYZ
    dof rx ry rz
    limits (-20.0 45.0)
           (-30.0 30.0)
           (-30.0 30.0)
  end
  begin
     id 16
     name head
     direction 0.0261681 0.999378 -0.0236299  
     length 1.60935  
     axis 0 0 0   XYZ
    dof rx ry rz
    limits (-20.0 45.0)
           (-30.0 30.0)
           (-30.0 30.0)
  end
  begin
     id 17 
     name lclavicle
     direction 0.96643 0.252035 0.0499195  
     length 3.82153  
     axis 0 0 0   XYZ
    dof ry rz
    limits (-20.0 10.0)
           (0.0 20.0)
  end
  begin
     id 18 
     name lhumerus
     direction 1 -4.48967e-011 -2.01614e-018   
     length 4.87796   
     axis 180 -30 -90   XYZ
    dof rx ry rz
    limits (-60.0 90.0)
           (-90.0 90.0)
           (-90.0 90.0)
  end
  begin
     id 19
     name lradius
     direction 1 -4.48958e-011 3.1409e-027   
     length 3.23169   
     axis 180 -30 -90   XYZ
    dof rx
    limits (-10.0 170.0)
  end
  begin
     id 20
     name lwrist
     direction 1 -4.48924e-011 1.0365e-027   
     length 1.61584   
     axis -2.56395e-016 90 90   XYZ
    dof ry
    limits (-180.0 0.0)
 end
  begin
     id 21 
     name lhand
     direction 1 -4.49055e-011 2.09488e-027   
     length 0.731324   
     axis -1.32723e-015 90 90   XYZ
    dof rx rz
    limits (-90.0 90.0)
           (-45.0 45.0)
  end
  begin
     id 22 
     name lfingers
     direction 1 -4.48935e-011 4.14981e-027   
     length 0.589612   
     axis -2.6545e-015 90 90   XYZ
    dof rx
    limits (0.0 90.0)
  end
  begin
     id 23
     name lthumb
     direction 0.707107 -6.35097e-011 0.707107   
     length 0.846569   
     axis -90 45 5.05613e-014   XYZ
    dof rx rz
    limits (-45.0 45.0)
           (-45.0 45.0)
  end
  begin
     id 24 
     name rclavicle
     direction -0.979337 0.201016 0.0221522   
     length 3.73827  
     axis 0 0 0   XYZ 
    dof ry rz
    limits (-10.0 20.0)
           (-20.0 0.0)
  end
  begin
     id 25 
     name rhumerus
     direction -1 -4.48971e-011 1.65907e-027  
     length 4.9143   
     axis 180 30 90   XYZ
    dof rx ry rz
    limits (-90.0 60.0)
           (-90.0 90.0)
           (-90.0 90.0)
  end
  begin
     id 26 
     name rradius
     direction -1 -4.4894e-011 2.17871e-028   
     length 3.29093   
     axis 180 30 90   XYZ
    dof rx
    limits (-10.0 170.0)
  end
  begin
     id 27 
     name rwrist
     direction -1 -4.48971e-011 1.04038e-027   
     length 1.64546   
     axis -2.56395e-016 -90 -90   XYZ
    dof ry
    limits (-180.0 0.0)
  end
  begin
     id 28
     name rhand
     direction -1 -4.49017e-011 2.08843e-027   
     length 0.54512   
     axis -1.32723e-015 -90 -90   XYZ
    dof rx rz
    limits (-90.0 90.0)
           (-45.0 45.0)
  end
  begin
     id 29
     name rfingers
     direction -1 -4.48918e-011 4.1439e-027   
     length 0.43949   
     axis -2.6545e-015 -90 -90   XYZ
    dof rx
    limits (0.0 90.0)
  end
  begin
     id 30
     name rthumb
     direction -0.707107 -6.35065e-011 0.707107   
     length 0.631022   
     axis -90 -45 -5.05613e-014   XYZ
    dof rx rz
    limits (-45.0 45.0)
           (-45.0 45.0)
  end
:hierarchy
  begin
    root lhipjoint rhipjoint lowerback
    lhipjoint lfemur
    lfemur ltibia
    ltibia lfoot
    lfoot ltoes
    rhipjoint rfemur
    rfemur rtibia
    rtibia rfoot
    rfoot rtoes
    lowerback upperback
    upperback thorax
    thorax lowerneck lclavicle rclavicle
    lowerneck upperneck
    upperneck head
    lclavicle lhumerus
    lhumerus lradius
    lradius lwrist
    lwrist lhand lthumb
    lhand lfingers
    rclavicle rhumerus
    rhumerus rradius
    rradius rwrist
    rwrist rhand rthumb
    rhand rfingers
  end

#!OML:ASF H:\BreakDance\Project 1\Capture day 1\Session 1\Male.ASF
:FULLY-SPECIFIED
:DEGREES
921
root 11.9021 9.9247 6.48321 104.379 -42.4864 -40.8878
lowerback 18.5809 8.60469 -0.160162
upperback 13.7971 9.78506 -1.31786
thorax 4.9162 4.45944 -2.68754
lowerneck 18.5003 27.0968 -13.5966
upperneck -37.3359 45.0872 2.17856
head -20.4326 17.5529 -7.623
rclavicle -4.13472e-014 -3.97569e-016
rhumerus 67.3608 14.0661 -36.6394
rradius 35.0837
rwrist -2.06587
rhand -56.9317 -232.191
rfingers 7.12502
rthumb -29.2263 875.533
lclavicle -4.13472e-014 -3.97569e-016
lhumerus 39.8471 -15.5804 52.2764
lradius 37.1038
lwrist 14.2861
lhand -29.8535 5.53058
lfingers 7.12502
lthumb -3.17603 -324.513
rfemur -112.632 -24.4794 27.6587
rtibia 71.6101
rfoot -8.5779 17.2258
rtoes -33.5055
lfemur -78.3102 -6.69859 -24.9775
ltibia 81.7842
lfoot -0.20228 -35.3075
ltoes -12.2915
922
root 11.8673 10.0327 6.4604 104.593 -42.2309 -40.0314
lowerback 18.5955 8.54188 -0.322206
upperback 13.8239 9.68788 -1.27093
thorax 4.89523 4.40002 -2.54074
lowerneck 18.3772 26.9319 -13.5268
upperneck -38.0154 44.945 1.65055
head -20.5809 17.5322 -7.79927
rclavicle 1.27222e-014 2.38542e-014
rhumerus 67.8701 13.395 -35.923
rradius 35.2407
rwrist -2.55618
rhand -57.0831 -232.717
rfingers 7.12502
rthumb -29.3708 874.983
lclavicle 1.27222e-014 2.38542e-014
lhumerus 40.9335 -15.2816 51.3561
lradius 36.929
lwrist 14.7566
lhand -29.837 5.34169
lfingers 7.12502
lthumb -3.16004 -324.702
rfemur -113.539 -24.1543 28.3191
rtibia 72.6665
rfoot -9.26344 17.7567
rtoes -33.8166
lfemur -78.9321 -6.65296 -24.6813
ltibia 81.1974
lfoot -0.577641 -34.7271
ltoes -10.799
923
root 11.8319 10.1401 6.4351 104.757 -41.9687 -39.1262
lowerback 18.6144 8.50569 -0.492492
upperback 13.8554 9.62289 -1.19011
thorax 4.87183 4.35387 -2.35855
lowerneck 18.2809 26.7436 -13.3787
upperneck -38.6815 44.757 1.11436
head -20.7031 17.4941 -7.96975
rclavicle 7.95139e-016 -4.77083e-015
rhumerus 68.2943 12.6547 -35.3251
rradius 35.3537
rwrist -2.95035
rhand -57.1776 -233.118
rfingers 7.12502
rthumb -29.461 874.566
lclavicle 7.95139e-016 -4.77083e-015
lhumerus 42.1198 -14.995 50.5045
lradius 36.6742
lwrist 15.2098
lhand -29.8266 5.15648
lfingers 7.12502
lthumb -3.15003 -324.887
rfemur -114.425 -23.8028 29.0004
rtibia 73.7868
rfoot -10.0405 18.1273
rtoes -34.2489
lfemur -79.5361 -6.57315 -24.4545
ltibia 80.6232
lfoot -1.14011 -33.9874
ltoes -9.91941
924
root 11.7966 10.247 6.407 104.858 -41.6864 -38.1719
lowerback 18.6531 8.49803 -0.653867
upperback 13.8902 9.59365 -1.07028
thorax 4.83855 4.32352 -2.1474
lowerneck 18.2675 26.5224 -13.134
upperneck -39.397 44.4965 0.51233
head -20.8201 17.4272 -8.16362
rclavicle 1.12115e-013 -4.33351e-014
rhumerus 68.6275 11.8588 -34.8207
rradius 35.4327
rwrist -3.2659
rhand -57.2102 -233.208
rfingers 7.12502
rthumb -29.4922 874.47
lclavicle 1.12115e-013 -4.33351e-014
lhumerus 43.4223 -14.7349 49.7227
lradius 36.3214
lwrist 15.659
lhand -29.8334 4.978
lfingers 7.12502
lthumb -3.15654 -325.066
rfemur -115.275 -23.4211 29.7113
rtibia 74.9661
rfoot -10.8888 18.3589
rtoes -34.8775
lfemur -80.1196 -6.4456 -24.2907
ltibia 80.0738
lfoot -1.89823 -33.1088
ltoes -10.4581
925
root 11.7617 10.3536 6.37565 104.887 -41.402 -37.1741
lowerback 18.7239 8.51627 -0.81472
upperback 13.9283 9.59488 -0.916385
thorax 4.7881 4.30605 -1.90914
lowerneck 18.3346 26.301 -12.775
upperneck -40.1289 44.2051 -0.172787
head -20.8995 17.3505 -8.38963
rclavicle 5.80451e-014 1.03368e-013
rhumerus 68.8741 11.02 -34.3412
rradius 35.5027
rwrist -3.56004
rhand -57.1785 -232.856
rfingers 7.12502
rthumb -29.4619 874.827
lclavicle 5.80451e-014 1.03368e-013
lhumerus 44.7963 -14.512 48.9816
lradius 35.9162
lwrist 16.1167
lhand -29.8425 4.8245
lfingers 7.12502
lthumb -3.1654 -325.219
rfemur -116.093 -23.0121 30.4307
rtibia 76.2036
rfoot -11.7799 18.4804
rtoes -35.669
lfemur -80.6878 -6.27401 -24.19
ltibia 79.569
lfoot -2.82519 -32.0544
ltoes -12.9141
926
root 11.7271 10.4598 6.34114 104.862 -41.1479 -36.1246
lowerback 18.8016 8.53018 -0.990112
upperback 13.9709 9.58899 -0.756925
thorax 4.7359 4.2842 -1.6571
lowerneck 18.397 26.0645 -12.4567
upperneck -40.8609 43.8953 -0.821081
head -21.0108 17.263 -8.61049
rclavicle 6.59965e-014 -1.07344e-014
rhumerus 69.0858 10.1573 -33.8268
rradius 35.594
rwrist -3.89272
rhand -57.1365 -232.489
rfingers 7.12502
rthumb -29.4218 875.202
lclavicle 6.59965e-014 -1.07344e-014
lhumerus 46.1282 -14.2928 48.2061
lradius 35.5449
lwrist 16.5738
lhand -29.8438 4.69035
lfingers 7.12502
lthumb -3.16659 -325.353
rfemur -116.917 -22.59 31.1305
rtibia 77.4914
rfoot -12.6808 18.5081
rtoes -36.5943
lfemur -81.283 -6.08805 -24.1373
ltibia 79.1289
lfoot -3.72527 -30.8803
ltoes -16.5811
927
root 11.6929 10.5644 6.30335 104.814 -40.9617 -35.0113
lowerback 18.8457 8.52571 -1.20909
upperback 14.0112 9.55861 -0.609846
thorax 4.69281 4.2493 -1.38743
lowerneck 18.5242 25.8376 -12.0905
upperneck -41.6711 43.5742 -1.59041
head -21.1257 17.1773 -8.89191
rclavicle 7.15625e-015 -7.0171e-014
rhumerus 69.2738 9.27847 -33.2427
rradius 35.7223
rwrist -4.29056
rhand -57.0835 -232.072
rfingers 7.12502
rthumb -29.3712 875.627
lclavicle 7.15625e-015 -7.0171e-014
lhumerus 47.4415 -14.0606 47.3894
lradius 35.1747
lwrist 16.9998
lhand -29.8203 4.56406
lfingers 7.12502
lthumb -3.14393 -325.479
rfemur -117.807 -22.1743 31.7831
rtibia 78.8118
rfoot -13.5449 18.4478
rtoes -37.5733
lfemur -81.9668 -5.928 -24.1101
ltibia 78.7801
lfoot -4.4163 -29.6578
ltoes -20.4967
